<?xml version="1.0" standalone="no"?>
<!DOCTYPE svg PUBLIC "-//W3C//DTD SVG 20010904//EN"
 "http://www.w3.org/TR/2001/REC-SVG-20010904/DTD/svg10.dtd">
<svg version="1.0" xmlns="http://www.w3.org/2000/svg"
 width="900.000000pt" height="900.000000pt" viewBox="0 0 900.000000 900.000000"
 preserveAspectRatio="xMidYMid meet">
<metadata>
Created by potrace 1.14, written by Peter Selinger 2001-2017
</metadata>
<g transform="translate(0.000000,900.000000) scale(0.100000,-0.100000)"
fill="#000000" stroke="none">
<path d="M488 8023 c-79 -37 -127 -105 -115 -163 12 -58 44 -130 58 -130 6 0
8 -4 5 -8 -9 -14 135 -132 160 -132 4 0 15 -7 25 -16 10 -9 31 -23 47 -32 16
-9 112 -68 214 -129 103 -62 191 -113 196 -113 6 0 12 -3 14 -8 5 -11 119 -77
129 -75 5 2 9 -1 9 -7 0 -5 16 -13 35 -19 31 -8 57 -5 122 14 26 8 53 61 49
97 -4 36 -26 88 -37 88 -5 0 -9 7 -9 16 0 16 -80 98 -169 174 -29 25 -66 56
-81 70 -15 14 -51 45 -80 70 -30 25 -61 53 -69 63 -9 9 -21 17 -28 17 -7 0
-13 4 -13 9 0 5 -37 40 -82 78 -46 37 -94 78 -108 90 -23 21 -29 24 -46 22 -3
0 -12 8 -20 18 -7 10 -14 15 -14 10 0 -4 -14 0 -30 8 -40 21 -101 16 -162 -12z"/>
<path d="M2769 8021 c-18 -14 -58 -48 -88 -75 -159 -138 -336 -223 -566 -271
-119 -24 -115 -23 -115 -58 0 -18 -4 -48 -10 -67 -5 -19 -11 -46 -14 -60 -3
-14 -17 -77 -31 -140 -15 -63 -29 -124 -30 -135 -2 -11 -4 -20 -5 -20 -1 0 -4
-13 -6 -30 -3 -16 -13 -55 -22 -85 -9 -30 -17 -57 -17 -60 -1 -3 -9 -31 -19
-62 -9 -32 -17 -60 -16 -63 0 -3 -7 -19 -15 -35 -9 -17 -12 -30 -8 -30 4 0 2
-5 -5 -12 -7 -7 -12 -19 -12 -27 0 -9 -11 -38 -25 -65 -14 -27 -25 -57 -25
-66 0 -9 -5 -21 -12 -28 -7 -7 -9 -12 -5 -12 4 0 1 -13 -8 -30 -9 -16 -13 -30
-10 -30 3 0 -2 -11 -11 -25 -9 -14 -13 -25 -10 -25 3 0 -4 -21 -18 -47 -13
-27 -34 -77 -47 -113 -12 -36 -26 -67 -29 -70 -3 -3 -17 -33 -30 -67 -14 -35
-28 -63 -33 -63 -4 0 -5 -4 -2 -10 3 -5 1 -10 -4 -10 -6 0 -11 -5 -11 -12 0
-18 -59 -139 -96 -195 -19 -28 -34 -55 -34 -60 0 -10 -67 -111 -92 -137 -10
-11 -18 -24 -18 -28 0 -16 -132 -196 -186 -253 -11 -13 -38 -44 -60 -71 -75
-93 -196 -220 -216 -227 -16 -5 8 -37 28 -37 16 0 203 -96 225 -116 8 -8 20
-14 25 -14 5 0 23 -13 40 -28 17 -15 43 -36 58 -47 29 -21 174 -165 526 -520
238 -240 350 -346 464 -438 21 -18 57 -47 80 -66 90 -74 266 -204 266 -196 0
3 8 -3 18 -12 30 -28 52 -45 125 -92 37 -25 67 -48 67 -53 0 -4 8 -8 18 -8 10
0 29 -11 42 -25 12 -13 27 -22 31 -19 5 3 9 1 9 -4 0 -5 13 -15 30 -22 16 -7
40 -22 52 -34 13 -12 64 -51 113 -86 104 -74 246 -181 291 -219 17 -14 43 -36
57 -49 15 -12 31 -22 35 -22 4 0 13 -9 20 -21 7 -12 16 -19 18 -16 3 3 30 -20
60 -49 30 -30 57 -54 60 -54 3 0 11 -6 18 -12 8 -7 51 -47 97 -89 96 -88 161
-149 310 -292 58 -56 127 -120 153 -142 26 -22 53 -44 60 -50 7 -5 21 -15 31
-21 11 -7 19 -19 17 -28 -2 -9 1 -16 7 -16 5 0 16 -3 25 -6 11 -4 16 -1 16 11
0 24 133 295 145 296 6 0 28 22 50 49 22 27 45 49 50 49 6 1 18 10 28 21 26
30 39 24 37 -17 -3 -58 -1 -63 18 -56 15 5 121 53 193 88 37 17 49 6 53 -50 3
-34 15 -44 49 -40 39 4 54 9 192 75 123 58 186 83 193 75 3 -3 12 1 20 7 7 7
23 13 33 15 11 2 36 10 57 20 20 9 40 15 45 15 4 -1 7 3 7 8 0 6 7 10 15 10
30 0 96 41 134 82 8 10 21 18 29 18 7 0 11 4 8 9 -3 5 5 20 18 34 13 13 33 41
45 61 13 20 27 36 32 36 6 0 8 4 5 8 -3 5 4 18 14 30 11 12 20 26 20 32 0 5 4
10 10 10 5 0 10 3 9 8 -2 16 14 52 24 52 6 0 7 3 4 6 -4 4 2 19 12 33 10 14
19 30 19 34 0 13 44 121 54 132 4 5 8 17 8 27 0 10 4 18 8 18 17 0 131 -154
132 -177 0 -7 4 -13 10 -13 14 0 32 -37 50 -105 20 -71 41 -79 52 -20 3 22 9
108 13 190 3 83 8 164 11 180 8 40 103 314 130 372 7 17 14 35 14 40 0 5 9 27
19 49 11 21 17 42 14 46 -2 5 0 8 5 8 5 0 12 14 16 31 l6 31 57 -7 c32 -3 94
-15 138 -26 44 -10 97 -21 118 -24 21 -2 41 -6 45 -9 4 -2 23 -7 42 -10 19 -3
49 -8 65 -11 138 -25 201 -34 270 -39 22 -1 60 -6 85 -10 25 -4 68 -8 95 -10
28 -1 56 -5 63 -10 23 -14 12 10 -22 47 -18 20 -31 39 -28 41 3 3 -3 8 -12 12
-9 3 -16 14 -16 25 0 10 -9 23 -19 29 -11 5 -23 19 -26 31 -4 12 -16 30 -26
40 -11 11 -17 24 -14 29 4 6 2 10 -3 10 -5 0 -13 10 -19 23 -43 92 -80 163
-88 169 -5 4 -6 8 -1 8 5 0 2 8 -6 18 -28 32 -30 52 -5 53 12 1 40 3 62 4 22
2 103 6 180 9 77 3 151 8 165 9 132 19 160 32 160 76 0 23 -8 34 -35 51 -43
27 -99 77 -214 192 -104 104 -125 128 -141 159 -7 13 -16 26 -19 29 -16 13
-117 240 -126 282 -4 18 -10 38 -13 43 -4 6 -16 37 -28 70 -48 137 -69 190
-77 196 -5 3 -7 8 -6 10 5 7 -23 99 -32 105 -5 3 -9 18 -9 33 0 16 -7 47 -15
70 -8 23 -16 52 -17 64 -2 12 -6 27 -10 32 -6 10 -22 89 -23 112 0 6 -4 15 -8
19 -4 4 -7 17 -7 29 0 12 -3 25 -7 29 -4 4 -9 19 -10 34 -2 15 -10 59 -19 97
-8 39 -17 85 -20 104 -6 51 -14 94 -20 113 -3 10 -8 41 -10 70 -8 81 -11 103
-13 103 -5 0 -11 42 -15 95 -3 30 -5 58 -5 63 -1 4 -7 7 -15 7 -8 0 -16 4 -18
8 -1 4 -41 23 -88 41 -47 19 -104 42 -127 52 -24 11 -47 19 -53 19 -5 0 -10 5
-10 11 0 5 -4 8 -9 5 -8 -5 -115 32 -152 54 -9 5 -33 12 -53 15 -20 4 -38 11
-41 15 -3 5 -42 21 -88 36 -45 14 -87 30 -93 35 -6 5 -19 10 -30 12 -10 2 -32
10 -49 17 -16 7 -41 15 -54 17 -13 2 -33 11 -45 19 -13 8 -26 11 -29 7 -4 -3
-7 -1 -7 5 0 7 -3 11 -7 10 -10 -3 -150 39 -178 53 -11 5 -30 11 -41 13 -12 3
-44 12 -70 21 -27 10 -58 18 -69 20 -11 1 -21 4 -22 5 -2 1 -6 3 -10 5 -5 1
-15 4 -23 8 -23 9 -115 37 -136 42 -10 2 -59 16 -109 30 -49 14 -99 27 -110
30 -11 2 -54 14 -95 25 -41 11 -120 31 -175 45 -55 14 -125 34 -155 46 -30 11
-64 22 -76 23 -11 2 -26 6 -33 10 -6 4 -24 10 -39 12 -34 6 -114 35 -127 46
-5 4 -19 8 -32 8 -13 0 -31 4 -41 9 -20 10 -122 41 -160 47 -15 3 -31 9 -37
13 -5 4 -28 12 -50 19 -22 6 -72 20 -110 32 -39 12 -78 22 -88 24 -9 1 -20 5
-23 9 -4 4 -15 7 -25 7 -9 0 -75 16 -145 36 -71 20 -140 38 -154 41 -122 25
-419 120 -583 186 l-86 35 -32 -27z"/>
<path d="M578 6815 c-2 -2 -28 -7 -58 -10 -29 -4 -70 -13 -89 -21 -41 -17 -93
-63 -85 -76 3 -4 1 -8 -3 -8 -13 0 -15 -65 -3 -109 17 -63 71 -98 175 -115 27
-4 61 -9 160 -21 138 -18 190 -20 325 -11 284 18 307 22 354 54 65 45 79 106
34 160 -52 65 -114 87 -348 127 -19 3 -48 8 -65 11 -74 14 -387 28 -397 19z"/>
<path d="M7526 3772 c-4 -3 -57 -6 -119 -7 -153 -1 -195 -26 -210 -122 -3 -17
-2 -35 1 -38 4 -4 8 -11 8 -16 1 -5 2 -12 3 -16 3 -19 50 -60 91 -80 71 -35
220 -92 280 -108 8 -3 33 -9 55 -15 86 -24 197 -47 258 -55 22 -3 51 -7 66 -9
148 -25 468 -38 550 -24 51 9 101 44 129 90 24 39 37 113 22 123 -6 3 -8 10
-5 15 18 30 -79 141 -135 155 -3 1 -16 6 -30 12 -54 22 -138 35 -310 47 -44 4
-175 14 -255 21 -22 2 -69 6 -105 9 -67 6 -159 13 -242 20 -25 3 -49 2 -52 -2z"/>
<path d="M6935 2980 c-59 -24 -92 -99 -71 -160 14 -40 83 -142 136 -199 8 -9
28 -36 44 -59 16 -23 33 -42 37 -42 5 0 9 -4 9 -10 0 -5 30 -47 66 -92 81
-103 80 -101 133 -171 24 -31 48 -57 54 -57 6 0 7 -3 4 -7 -8 -7 60 -90 163
-196 77 -81 116 -114 141 -119 8 -2 16 -6 19 -10 3 -4 24 -11 47 -16 100 -23
236 66 246 160 2 20 9 44 16 52 11 13 11 16 1 16 -8 0 -11 3 -7 6 12 12 -90
189 -143 248 -162 180 -380 384 -486 456 -27 19 -51 36 -54 40 -10 12 -200
130 -210 130 -6 0 -10 4 -10 9 0 23 -95 38 -135 21z"/>
<path d="M5981 2598 c-29 -10 -48 -35 -77 -97 -28 -63 -24 -146 16 -308 18
-70 33 -135 35 -143 6 -29 30 -130 41 -172 3 -13 7 -34 10 -48 3 -14 9 -38 14
-55 5 -16 24 -88 41 -160 17 -71 35 -143 39 -160 5 -16 14 -50 21 -75 21 -82
42 -144 62 -190 11 -25 22 -54 24 -65 2 -10 7 -22 11 -25 4 -3 14 -18 22 -35
23 -47 52 -85 62 -79 4 3 8 1 8 -4 0 -30 145 -47 177 -21 14 12 16 12 8 -1 -9
-14 18 1 73 41 44 32 60 92 58 218 -2 126 -3 132 -190 656 -26 72 -56 157 -68
190 -11 33 -25 62 -30 63 -4 2 -6 7 -3 12 3 4 -4 29 -15 54 -11 26 -20 48 -20
51 -1 8 -11 39 -20 60 -5 11 -25 66 -46 123 -29 82 -44 109 -70 130 -19 15
-37 27 -41 27 -5 1 -18 4 -30 8 -36 13 -86 15 -112 5z"/>
</g>
</svg>
